<svg width="68" height="68" viewBox="0 0 68 68" fill="none" xmlns="http://www.w3.org/2000/svg">
<g filter="url(#filter0_d_2_4)">
<rect x="4" width="60" height="60" rx="5" fill="url(#paint0_linear_2_4)" shape-rendering="crispEdges"/>
</g>
<path d="M22.32 44V16H34.44C36.9467 16 39.1067 16.4133 40.92 17.24C42.7333 18.04 44.1333 19.2 45.12 20.72C46.1067 22.24 46.6 24.0533 46.6 26.16C46.6 28.24 46.1067 30.04 45.12 31.56C44.1333 33.08 42.7333 34.2533 40.92 35.08C39.1067 35.88 36.9467 36.28 34.44 36.28H25.92L28.8 33.36V44H22.32ZM28.8 34.08L25.92 31H34.08C36.08 31 37.5733 30.5733 38.56 29.72C39.5467 28.8667 40.04 27.68 40.04 26.16C40.04 24.6133 39.5467 23.4133 38.56 22.56C37.5733 21.7067 36.08 21.28 34.08 21.28H25.92L28.8 18.2V34.08Z" fill="white"/>
<defs>
<filter id="filter0_d_2_4" x="0" y="0" width="68" height="68" filterUnits="userSpaceOnUse" color-interpolation-filters="sRGB">
<feFlood flood-opacity="0" result="BackgroundImageFix"/>
<feColorMatrix in="SourceAlpha" type="matrix" values="0 0 0 0 0 0 0 0 0 0 0 0 0 0 0 0 0 0 127 0" result="hardAlpha"/>
<feOffset dy="4"/>
<feGaussianBlur stdDeviation="2"/>
<feComposite in2="hardAlpha" operator="out"/>
<feColorMatrix type="matrix" values="0 0 0 0 0 0 0 0 0 0 0 0 0 0 0 0 0 0 0.25 0"/>
<feBlend mode="normal" in2="BackgroundImageFix" result="effect1_dropShadow_2_4"/>
<feBlend mode="normal" in="SourceGraphic" in2="effect1_dropShadow_2_4" result="shape"/>
</filter>
<linearGradient id="paint0_linear_2_4" x1="34" y1="-2" x2="34" y2="77.5" gradientUnits="userSpaceOnUse">
<stop stop-color="#8F00D3"/>
<stop offset="0.253962" stop-color="#B80000" stop-opacity="0.74"/>
<stop offset="1" stop-color="#E7EC00"/>
</linearGradient>
</defs>
</svg>
